<?xml version="1.0" encoding="UTF-8" standalone="no"?>
<svg
   id="svg"
   version="1.1"
   width="24.318365"
   height="38.579765"
   viewBox="0 0 24.318366 38.579766"
   sodipodi:docname="logo.svg"
   inkscape:version="1.1 (c4e8f9ed74, 2021-05-24)"
   xmlns:inkscape="http://www.inkscape.org/namespaces/inkscape"
   xmlns:sodipodi="http://sodipodi.sourceforge.net/DTD/sodipodi-0.dtd"
   xmlns:xlink="http://www.w3.org/1999/xlink"
   xmlns="http://www.w3.org/2000/svg"
   xmlns:svg="http://www.w3.org/2000/svg">
  <defs
     id="defs8">
    <rect
       x="216.35968"
       y="25.323742"
       width="714.38501"
       height="242.8143"
       id="rect15247" />
    <linearGradient
       inkscape:collect="always"
       id="linearGradient4107-2">
      <stop
         style="stop-color:#846954;stop-opacity:1"
         offset="0"
         id="stop4103" />
      <stop
         style="stop-color:#543b23;stop-opacity:1"
         offset="1"
         id="stop4105" />
    </linearGradient>
    <linearGradient
       inkscape:collect="always"
       id="linearGradient2197">
      <stop
         style="stop-color:#81be1c;stop-opacity:1"
         offset="0"
         id="stop2193" />
      <stop
         style="stop-color:#a5d74d;stop-opacity:1"
         offset="1"
         id="stop2195" />
    </linearGradient>
    <linearGradient
       inkscape:collect="always"
       xlink:href="#linearGradient2197"
       id="linearGradient2199"
       x1="225.28816"
       y1="376.24557"
       x2="128.92688"
       y2="157.18452"
       gradientUnits="userSpaceOnUse"
       gradientTransform="matrix(0.11134207,0,0,0.11134207,334.009,56.896804)" />
    <linearGradient
       inkscape:collect="always"
       xlink:href="#linearGradient4107-2"
       id="linearGradient4109"
       x1="216.11034"
       y1="80.531502"
       x2="216.16855"
       y2="301.38617"
       gradientUnits="userSpaceOnUse"
       gradientTransform="matrix(0.11134207,0,0,0.11134207,335.32284,57.093768)" />
    <rect
       x="216.35968"
       y="25.323742"
       width="714.38501"
       height="242.8143"
       id="rect15247-1" />
  </defs>
  <sodipodi:namedview
     id="namedview6"
     pagecolor="#ffffff"
     bordercolor="#999999"
     borderopacity="1"
     inkscape:pageshadow="0"
     inkscape:pageopacity="0"
     inkscape:pagecheckerboard="0"
     showgrid="false"
     fit-margin-top="0"
     fit-margin-left="0"
     fit-margin-right="0"
     fit-margin-bottom="0"
     inkscape:snap-text-baseline="false"
     inkscape:zoom="2.5703331"
     inkscape:cx="101.73779"
     inkscape:cy="-26.84477"
     inkscape:window-width="1920"
     inkscape:window-height="1023"
     inkscape:window-x="0"
     inkscape:window-y="27"
     inkscape:window-maximized="1"
     inkscape:current-layer="svgg" />
  <g
     id="svgg"
     transform="translate(-342.92442,-60.225215)">
    <path
       style="fill:url(#linearGradient4109);fill-opacity:1;stroke-width:0.111342"
       d="m 357.54673,60.650924 c -0.60738,0.201195 -0.90867,0.548916 -1.36785,1.579165 -0.23993,0.538339 -0.61483,1.596979 -0.65981,1.86342 -0.0176,0.104105 -0.0809,0.319106 -0.14073,0.477992 -0.14408,0.382794 -0.40195,1.944812 -0.45974,2.784776 -0.12303,1.789491 0.2945,4.203721 1.0945,6.327459 0.0831,0.220457 0.18883,0.51106 0.23516,0.645784 0.0463,0.134724 0.12692,0.345161 0.17914,0.467637 0.0522,0.122476 0.19418,0.493245 0.31555,0.823931 0.12136,0.330687 0.28826,0.76158 0.37087,0.957542 0.34561,0.819144 0.36643,0.874258 0.88351,2.338184 1.29434,3.664601 1.37484,7.234785 0.23047,10.221202 -0.33391,0.871252 -0.61772,1.528279 -0.84252,1.950822 -0.38458,0.722499 0.25185,1.100954 1.12044,0.666274 0.14618,-0.07315 0.34593,-0.158659 0.44391,-0.189836 0.35541,-0.113346 1.27732,-0.623183 1.75921,-0.972798 0.49869,-0.361752 0.68776,-0.509945 1.073,-0.840297 0.43424,-0.372333 1.25327,-1.233116 1.57694,-1.657218 0.098,-0.128377 0.27836,-0.360859 0.40083,-0.516738 0.86546,-1.10095 2.00327,-3.361083 2.47702,-4.920318 0.0483,-0.159219 0.14575,-0.469863 0.21646,-0.690321 0.0707,-0.220456 0.16156,-0.571185 0.20197,-0.779394 0.0403,-0.20821 0.11057,-0.528875 0.1561,-0.71259 0.0455,-0.183713 0.12448,-0.674732 0.1757,-1.091152 0.0511,-0.416419 0.1266,-1.007645 0.16768,-1.313836 0.14575,-1.085029 0.10745,-3.059569 -0.089,-4.587294 -0.14319,-1.113754 -0.22725,-1.571815 -0.50249,-2.739014 -0.12537,-0.531325 -0.41229,-1.381199 -0.88494,-2.620436 -0.12159,-0.318661 -0.75446,-1.568031 -1.00765,-1.989127 -0.12871,-0.213999 -0.35273,-0.556376 -0.7559,-1.154951 -0.44493,-0.660704 -1.62849,-1.939356 -2.29064,-2.4748 -1.57315,-1.272084 -3.36876,-2.088666 -4.07723,-1.854068"
       id="path164" />
    <path
       style="fill:url(#linearGradient2199);fill-opacity:1;stroke-width:0.111342"
       d="m 352.58087,60.322687 c -0.2572,0.06714 -0.52776,0.153429 -0.60125,0.191731 -0.0735,0.0383 -0.2857,0.119359 -0.47153,0.18004 -0.30742,0.100432 -0.51864,0.20732 -1.42774,0.722388 -1.14727,0.650015 -2.49551,1.909405 -3.62397,3.385245 -0.70646,0.923916 -1.7602,2.817399 -2.09434,3.763361 -0.0648,0.183715 -0.17425,0.494359 -0.24317,0.690321 -0.0689,0.195962 -0.16523,0.448263 -0.21389,0.560831 -0.0488,0.112454 -0.12381,0.362974 -0.16668,0.556709 -0.0429,0.193624 -0.11646,0.462404 -0.16356,0.597128 -0.6165,1.765997 -0.8619,6.817587 -0.43913,9.040976 0.17347,0.912003 0.33547,1.626374 0.42555,1.876114 0.059,0.163562 0.13806,0.459621 0.17569,0.657921 0.0375,0.198411 0.10611,0.435904 0.15232,0.527761 0.0462,0.09197 0.10923,0.247291 0.14007,0.345272 0.0308,0.09798 0.13383,0.36253 0.2287,0.587886 0.095,0.225245 0.17269,0.431228 0.17269,0.457728 0,0.05111 0.34995,0.764363 0.78729,1.604327 0.89832,1.725357 2.47503,3.532773 4.00041,4.585625 1.60222,1.10585 2.14156,1.151164 1.69831,0.142515 -0.0825,-0.187722 -0.16457,-0.41141 -0.1825,-0.497141 -0.0179,-0.08573 -0.0788,-0.240162 -0.13539,-0.343156 -0.0565,-0.103101 -0.13773,-0.293497 -0.18048,-0.423102 -0.0429,-0.129712 -0.13339,-0.346052 -0.2012,-0.480775 -0.0678,-0.134723 -0.13739,-0.325117 -0.15465,-0.423098 -0.0173,-0.09798 -0.0976,-0.349614 -0.17859,-0.559049 -0.0809,-0.209545 -0.16145,-0.440023 -0.17882,-0.512173 -0.0175,-0.07226 -0.0897,-0.279135 -0.16078,-0.459954 -0.071,-0.180708 -0.15877,-0.471311 -0.19507,-0.645784 -0.0362,-0.174362 -0.10511,-0.437352 -0.1532,-0.584323 -0.0767,-0.235044 -0.22681,-0.792644 -0.42544,-1.581057 -0.0612,-0.243283 -0.213,-1.043053 -0.37611,-1.98189 -0.4898,-2.820851 -0.6174,-6.819257 -0.28504,-8.929634 0.0366,-0.232705 0.12459,-0.81391 0.19529,-1.291568 0.16434,-1.108633 0.3406,-1.67915 0.47677,-1.542867 0.0158,0.0157 0.0324,0.694997 0.037,1.509464 0.013,2.299659 0.12226,4.156734 0.33336,5.667311 0.048,0.342935 0.11724,0.974244 0.15388,1.402911 0.0368,0.428667 0.11635,1.029914 0.17692,1.336105 0.0606,0.306191 0.14196,0.757126 0.18093,1.002079 0.0389,0.244952 0.11881,0.655804 0.17747,0.913005 0.0587,0.257199 0.12928,0.63799 0.15689,0.846199 0.0275,0.20821 0.10756,0.578979 0.17782,0.823931 0.0703,0.244954 0.14173,0.525535 0.15888,0.623516 0.0171,0.09798 0.0984,0.39404 0.18049,0.658032 0.082,0.263881 0.16834,0.598909 0.19184,0.744545 0.0482,0.299732 0.29238,1.079461 0.51919,1.658329 0.0837,0.213776 0.15231,0.419759 0.15231,0.457615 0,0.03786 0.0421,0.183603 0.0936,0.323894 0.0516,0.14018 0.14964,0.417308 0.21812,0.615719 0.0684,0.198303 0.159,0.427668 0.2013,0.509507 0.0424,0.08195 0.12315,0.280357 0.17949,0.441024 0.12626,0.359522 0.38892,0.98092 0.52843,1.249592 0.0572,0.110228 0.1296,0.28058 0.161,0.378563 0.0313,0.09798 0.10622,0.256643 0.16657,0.352511 0.12247,0.194625 0.27356,0.469635 0.60135,1.094932 0.29083,0.5546 0.68943,1.18936 1.32486,2.109711 1.05887,1.533742 3.19541,3.539899 3.77584,3.545469 0.60269,0.0057 0.79854,-1.117428 0.25463,-1.460368 -1.12399,-0.708463 -2.08287,-1.476499 -2.50876,-2.009276 -0.0895,-0.112006 -0.26554,-0.323894 -0.39125,-0.470868 -0.29762,-0.348052 -0.92358,-1.282655 -1.06309,-1.587178 -0.0601,-0.131382 -0.14965,-0.308975 -0.19886,-0.394706 -0.21645,-0.37667 -0.45416,-1.02969 -0.54647,-1.501117 -0.1198,-0.612716 -0.0952,-0.719158 0.36409,-1.574374 0.16523,-0.307641 0.32512,-0.638323 0.35541,-0.734858 0.0303,-0.09664 0.12158,-0.326008 0.20297,-0.509725 0.7225,-1.630271 1.02245,-4.237457 0.67907,-5.90113 -0.0658,-0.318438 -0.14118,-0.749332 -0.16767,-0.957542 -0.0264,-0.208209 -0.0969,-0.528875 -0.15644,-0.712589 -0.0596,-0.183715 -0.13127,-0.444255 -0.15911,-0.578979 -0.028,-0.134724 -0.1011,-0.365202 -0.16267,-0.512174 -0.0616,-0.146971 -0.15922,-0.443141 -0.21701,-0.658031 -0.0577,-0.215002 -0.13583,-0.45049 -0.17347,-0.523308 -0.0672,-0.130048 -0.17157,-0.40317 -0.5096,-1.334991 -0.24919,-0.686647 -0.47232,-1.258166 -0.55004,-1.408367 -0.0375,-0.07271 -0.10121,-0.258981 -0.1414,-0.414192 -0.0401,-0.155099 -0.12158,-0.404729 -0.18093,-0.554706 -0.24407,-0.616946 -0.49971,-1.352695 -0.52822,-1.519708 -0.0166,-0.09798 -0.0878,-0.388584 -0.1582,-0.645784 -0.0704,-0.2572 -0.16969,-0.63799 -0.22057,-0.8462 -0.051,-0.20821 -0.13184,-0.523307 -0.1796,-0.700119 -0.24318,-0.898641 -0.32757,-3.15755 -0.1816,-4.857854 0.0905,-1.05441 0.12169,-1.255828 0.26744,-1.730925 0.0463,-0.150868 0.10634,-0.401387 0.13328,-0.55671 0.0485,-0.279357 0.28258,-1.077791 0.45483,-1.551663 0.21022,-0.578199 0.31287,-0.841189 0.4349,-1.113421 0.50472,-1.126225 0.28538,-1.444663 -0.79976,-1.161409"
       id="path0" />
  </g>
</svg>
